<svg xmlns="http://www.w3.org/2000/svg" version="1.1" xmlns:xlink="http://www.w3.org/1999/xlink" xmlns:svgjs="http://svgjs.dev/svgjs" width="2000" height="1247" viewBox="0 0 2000 1247"><g transform="matrix(1,0,0,1,-1.2121212121212466,0.504858299595071)"><svg viewBox="0 0 396 247" data-background-color="#ffffff" preserveAspectRatio="xMidYMid meet" height="1247" width="2000" xmlns="http://www.w3.org/2000/svg" xmlns:xlink="http://www.w3.org/1999/xlink"><g id="tight-bounds" transform="matrix(1,0,0,1,0.2400000000000091,-0.09999999999999432)"><svg viewBox="0 0 395.52 247.2" height="247.2" width="395.52"><g><svg></svg></g><g><svg viewBox="0 0 395.52 247.2" height="247.2" width="395.52"><mask id="9ff793e5-61a0-4feb-8daf-913c64580938"><rect width="640" height="400" fill="white"></rect><g transform="matrix(1,0,0,1,62.67936758893279,37.08)"><svg viewBox="0 0 270.1612648221344 173.04" height="173.04" width="270.1612648221344"><g><svg viewBox="0 0 270.1612648221344 173.04" height="173.04" width="270.1612648221344"><g><svg viewBox="0 0 270.1612648221344 173.04" height="173.04" width="270.1612648221344"><g><svg viewBox="0 0 270.1612648221344 173.04" height="173.04" width="270.1612648221344"><g id="SvgjsG6025"><svg viewBox="0 0 270.1612648221344 173.04" height="173.04" width="270.1612648221344" id="SvgjsSvg6024"><g><svg viewBox="0 0 270.1612648221344 173.04" height="173.04" width="270.1612648221344"><g transform="matrix(1,0,0,1,0,0)"><svg width="270.1612648221344" viewBox="-2.75 -34.7 60.25 38.95" height="173.04" data-palette-color="#ff0000"><path d="M23.35-26.95L13.05-26.95 12.8-30.4 24.45-30.4Q24.6-30.2 24.75-29.75 24.9-29.3 24.9-28.8L24.9-28.8Q24.9-28 24.5-27.48 24.1-26.95 23.35-26.95L23.35-26.95ZM2.8-30.4L13.15-30.4 13.4-26.95 1.7-26.95Q1.55-27.2 1.4-27.65 1.25-28.1 1.25-28.6L1.25-28.6Q1.25-29.45 1.65-29.93 2.05-30.4 2.8-30.4L2.8-30.4ZM11.05-1.6L11.05-28.3 15.1-28.3 15.1-0.1Q14.85 0 14.33 0.13 13.8 0.25 13.25 0.25L13.25 0.25Q12.15 0.25 11.6-0.2 11.05-0.65 11.05-1.6L11.05-1.6ZM43.5-0.4L43.5-0.4 43.5-0.4Q43.25-0.2 42.55 0.03 41.85 0.25 41 0.25L41 0.25Q40.05 0.25 39.3-0.03 38.55-0.3 38.3-0.85L38.3-0.85Q37.5-2.4 36.42-5 35.35-7.6 34.12-10.83 32.9-14.05 31.7-17.43 30.5-20.8 29.47-23.98 28.45-27.15 27.7-29.6L27.7-29.6Q28-30 28.6-30.35 29.2-30.7 29.95-30.7L29.95-30.7Q30.9-30.7 31.35-30.25 31.8-29.8 32.1-28.9L32.1-28.9Q34.3-22.4 36.37-16.25 38.45-10.1 40.9-3.85L40.9-3.85 41.1-3.85Q42.55-7.65 44.12-12.08 45.7-16.5 47.17-21.2 48.65-25.9 49.8-30.35L49.8-30.35Q50.15-30.55 50.57-30.63 51-30.7 51.5-30.7L51.5-30.7Q52.4-30.7 52.95-30.25 53.5-29.8 53.5-28.9L53.5-28.9Q53.5-28.15 52.95-26.1 52.4-24.05 51.47-21.25 50.55-18.45 49.45-15.35 48.35-12.25 47.2-9.28 46.05-6.3 45.1-3.98 44.15-1.65 43.5-0.4Z" opacity="1" transform="matrix(1,0,0,1,0,0)" fill="black" class="wordmark-text-0" id="SvgjsPath6023" stroke-width="7" stroke="black" stroke-linejoin="round"></path></svg></g></svg></g></svg></g></svg></g><g></g></svg></g></svg></g></svg></g></mask><g transform="matrix(1,0,0,1,62.67936758893279,37.08)"><svg viewBox="0 0 270.1612648221344 173.04" height="173.04" width="270.1612648221344"><g><svg viewBox="0 0 270.1612648221344 173.04" height="173.04" width="270.1612648221344"><g><svg viewBox="0 0 270.1612648221344 173.04" height="173.04" width="270.1612648221344"><g><svg viewBox="0 0 270.1612648221344 173.04" height="173.04" width="270.1612648221344"><g id="textblocktransform"><svg viewBox="0 0 270.1612648221344 173.04" height="173.04" width="270.1612648221344" id="textblock"><g><svg viewBox="0 0 270.1612648221344 173.04" height="173.04" width="270.1612648221344"><g transform="matrix(1,0,0,1,0,0)"><svg width="270.1612648221344" viewBox="-2.75 -34.7 60.25 38.95" height="173.04" data-palette-color="#ff0000"><path d="M23.35-26.95L13.05-26.95 12.8-30.4 24.45-30.4Q24.6-30.2 24.75-29.75 24.9-29.3 24.9-28.8L24.9-28.8Q24.9-28 24.5-27.48 24.1-26.95 23.35-26.95L23.35-26.95ZM2.8-30.4L13.15-30.4 13.4-26.95 1.7-26.95Q1.55-27.2 1.4-27.65 1.25-28.1 1.25-28.6L1.25-28.6Q1.25-29.45 1.65-29.93 2.05-30.4 2.8-30.4L2.8-30.4ZM11.05-1.6L11.05-28.3 15.1-28.3 15.1-0.1Q14.85 0 14.33 0.13 13.8 0.25 13.25 0.25L13.25 0.25Q12.15 0.25 11.6-0.2 11.05-0.65 11.05-1.6L11.05-1.6ZM43.5-0.4L43.5-0.4 43.5-0.4Q43.25-0.2 42.55 0.03 41.85 0.25 41 0.25L41 0.25Q40.05 0.25 39.3-0.03 38.55-0.3 38.3-0.85L38.3-0.85Q37.5-2.4 36.42-5 35.35-7.6 34.12-10.83 32.9-14.05 31.7-17.43 30.5-20.8 29.47-23.98 28.45-27.15 27.7-29.6L27.7-29.6Q28-30 28.6-30.35 29.2-30.7 29.95-30.7L29.95-30.7Q30.9-30.7 31.35-30.25 31.8-29.8 32.1-28.9L32.1-28.9Q34.3-22.4 36.37-16.25 38.45-10.1 40.9-3.85L40.9-3.85 41.1-3.85Q42.55-7.65 44.12-12.08 45.7-16.5 47.17-21.2 48.65-25.9 49.8-30.35L49.8-30.35Q50.15-30.55 50.57-30.63 51-30.7 51.5-30.7L51.5-30.7Q52.4-30.7 52.95-30.25 53.5-29.8 53.5-28.9L53.5-28.9Q53.5-28.15 52.95-26.1 52.4-24.05 51.47-21.25 50.55-18.45 49.45-15.35 48.35-12.25 47.2-9.28 46.05-6.3 45.1-3.98 44.15-1.65 43.5-0.4Z" opacity="1" transform="matrix(1,0,0,1,0,0)" fill="#ffffff" class="wordmark-text-0" data-fill-palette-color="primary" id="text-0"></path></svg></g></svg></g></svg></g></svg></g><g></g></svg></g></svg></g></svg></g><g mask="url(#9ff793e5-61a0-4feb-8daf-913c64580938)"><g transform="matrix(4.1853186405622615, 0, 0, 4.1853186405622615, 0.9999999999999716, 23.12514805534208)"><svg xmlns="http://www.w3.org/2000/svg" xmlns:xlink="http://www.w3.org/1999/xlink" version="1.1" x="0" y="0" viewBox="5.975595538777446 28.694000000000003 94.02390446122257 48.01299999999999" enable-background="new 0 0 100 100" xml:space="preserve" height="48.01299999999999" width="94.02390446122257" class="icon-none" data-fill-palette-color="accent" id="none"><g fill="#ff0000" data-fill-palette-color="accent"><g fill="#ff0000" data-fill-palette-color="accent"><path d="M62.57 48.19v0.012c0 0.756 0.07 1.443 0.389 2.141 0.18 0.395 0.689 0.643 1.105 0.635 0.984-0.014 1.812-0.324 2.418-1.115 0.49-0.635 0.568-1.533 0.572-2.303 0.008-0.803-0.826-1.496-1.621-1.232-0.641 0.211-1.281 0.426-1.922 0.641-0.105 0.033-0.207 0.08-0.301 0.145-0.33 0.193-0.559 0.514-0.621 0.883C62.574 48.058 62.57 48.122 62.57 48.19z" fill="#ffffff" data-fill-palette-color="accent"></path></g><g fill="#ff0000" data-fill-palette-color="accent"><path d="M12.333 54.394v0.008c0 0.492 0.046 0.936 0.252 1.389 0.117 0.256 0.447 0.416 0.717 0.412 0.638-0.01 1.174-0.211 1.566-0.723 0.317-0.414 0.369-0.996 0.371-1.494 0.007-0.52-0.536-0.971-1.05-0.799-0.415 0.137-0.829 0.275-1.246 0.414-0.069 0.023-0.135 0.053-0.195 0.096-0.213 0.125-0.36 0.332-0.401 0.572C12.336 54.31 12.333 54.349 12.333 54.394z" fill="#ffffff" data-fill-palette-color="accent"></path></g><g fill="#ff0000" data-fill-palette-color="accent"><path d="M74.676 62.317v0.018c0 1.01 0.092 1.926 0.518 2.855 0.24 0.523 0.922 0.855 1.475 0.846 1.312-0.02 2.416-0.434 3.221-1.488 0.654-0.846 0.76-2.045 0.766-3.07 0.012-1.068-1.102-1.994-2.16-1.645-0.855 0.283-1.707 0.568-2.562 0.855-0.141 0.045-0.277 0.107-0.4 0.193-0.439 0.258-0.744 0.686-0.828 1.176C74.682 62.144 74.676 62.226 74.676 62.317z" fill="#ffffff" data-fill-palette-color="accent"></path></g><g fill="#ff0000" data-fill-palette-color="accent"><g fill="#ff0000" data-fill-palette-color="accent"><path d="M88.582 33.981c3.408 0 3.408-5.287 0-5.287C85.176 28.694 85.176 33.981 88.582 33.981L88.582 33.981z" fill="#ffffff" data-fill-palette-color="accent"></path></g></g><g fill="#ff0000" data-fill-palette-color="accent"><g fill="#ff0000" data-fill-palette-color="accent"><path d="M86.027 46.89c3.408 0 3.408-5.283 0-5.283S82.619 46.89 86.027 46.89L86.027 46.89z" fill="#ffffff" data-fill-palette-color="accent"></path></g></g><g fill="#ff0000" data-fill-palette-color="accent"><g fill="#ff0000" data-fill-palette-color="accent"><path d="M98.564 54.54c1.914 0 1.914-2.967 0-2.967C96.648 51.573 96.648 54.54 98.564 54.54L98.564 54.54z" fill="#ffffff" data-fill-palette-color="accent"></path></g></g><g fill="#ff0000" data-fill-palette-color="accent"><path d="M67.832 76.707c-2.541 0-5.08-0.459-7.479-1.373-0.475-0.186-11.079-4.355-19.87-11.813-6.449 3.112-11.482 4.921-18.445 5.503-7.836 0.488-13.592-2.545-15.433-8.11-2.164-6.596 1.433-13.729 8.016-15.906 2.743-0.898 5.737-0.826 8.437 0.195 0.2 0.078 4.211 1.652 8.413 4.518 11.961-9.543 29.23-13.674 29.982-13.852l0.154-0.029c4.314-0.662 8.252-0.605 11.699 0.17l5.207 1.172-4.695 2.539c-0.408 0.221-0.719 0.586-0.877 1.029-0.09 0.246-0.131 0.469-0.131 0.689 0 0.771 0.434 1.465 1.129 1.807l1.986 0.979-1.174 1.877c-0.543 0.867-0.83 1.883-0.83 2.939 0 3.082 2.508 5.59 5.59 5.59 0.709 0 1.387-0.127 2.01-0.379l1.885-0.756 0.729 1.895c0.412 1.07 1.402 1.855 2.523 2l2.111 0.273-0.402 2.09c-1.436 7.438-6.797 13.534-13.996 15.911C72.252 76.359 70.041 76.707 67.832 76.707zM37.455 54.95l0.438 0.314 0.164 0.197c1.177 1.418 2.546 2.826 4.071 4.186 8.435 7.54 19.551 11.909 19.663 11.952 3.668 1.398 7.59 1.492 11.33 0.264 5.25-1.732 9.295-5.915 10.887-11.134-1.076-0.514-2.014-1.291-2.717-2.264-0.58 0.109-1.174 0.164-1.779 0.164-5.287 0-9.59-4.303-9.59-9.59 0-1.17 0.209-2.314 0.611-3.385-1.09-1.104-1.723-2.602-1.723-4.217 0-0.676 0.117-1.348 0.35-1.994-2.111-0.148-4.408-0.035-6.863 0.336-1.189 0.291-16.682 4.195-27.548 12.459C35.77 53.128 36.675 54.034 37.455 54.95zM18.569 48.372c-0.904 0-1.812 0.145-2.697 0.434-4.487 1.484-6.942 6.355-5.467 10.855 1.828 5.527 9.141 5.51 11.344 5.373 5.801-0.484 10.216-1.949 15.569-4.439-0.772-0.783-1.499-1.578-2.172-2.379l-0.436-0.311-0.164-0.199c-1.079-1.299-2.485-2.598-4.181-3.863-4.179-3.107-8.696-4.889-8.741-4.906C20.633 48.562 19.602 48.372 18.569 48.372z" fill="#ffffff" data-fill-palette-color="accent"></path></g></g></svg></g></g></svg></g><defs></defs></svg><rect width="395.52" height="247.2" fill="none" stroke="none" visibility="hidden"></rect></g></svg></g></svg>